<?xml version="1.0" encoding="UTF-8"?>
<!-- Generated by Pixelmator Pro 3.2.3 -->
<svg width="40" height="40" viewBox="0 0 40 40" xmlns="http://www.w3.org/2000/svg" xmlns:xlink="http://www.w3.org/1999/xlink">
    <path id="Path" fill="#5eae4b" stroke="none" d="M 19.986683 0 C 8.94835 0 -0 8.948349 -0 19.986683 C -0 31.025015 8.94835 39.973366 19.986683 39.973366 C 31.025015 39.973366 39.973366 31.025015 39.973366 19.986683 C 39.973366 8.948349 31.025015 0 19.986683 0 Z M 19.727573 33.228413 L 11.829066 22.0555 L 19.727573 26.679955 L 19.727573 33.228413 Z M 19.727573 25.042398 L 11.775621 20.38443 L 19.727573 16.901184 L 19.727573 25.042398 Z M 19.727573 16.341516 L 12.031732 19.712229 L 19.727573 6.782169 L 19.727573 16.341516 Z M 20.240149 6.77829 L 28.044115 19.760204 L 20.240149 16.341516 L 20.240149 6.77829 Z M 20.240149 33.228413 L 20.240149 26.679955 L 28.138657 22.0555 L 20.240149 33.228413 Z M 20.240149 25.042576 L 20.240149 16.901361 L 28.197922 20.387075 L 20.240149 25.042576 Z"/>
</svg>
