<svg width="40" height="40" viewBox="0 0 40 40" fill="none" xmlns="http://www.w3.org/2000/svg">
<g clip-path="url(#clip0)">
<path d="M40.0007 19.9999C40.0007 31.0456 31.0466 40 20.001 40C8.95522 40 0.000976562 31.0456 0.000976562 19.9999C0.000976562 8.95425 8.95522 0 20.001 0C31.0465 0 40.0007 8.95425 40.0007 19.9999Z" fill="#BEBEBE"/>
<path d="M35.7537 20.0001C35.7537 28.7001 28.7006 35.7538 20.0001 35.7538C11.2998 35.7538 4.24615 28.7001 4.24615 20.0001C4.24615 11.2994 11.2998 4.24615 20.0001 4.24615C28.7007 4.24615 35.7537 11.2993 35.7537 20.0001Z" fill="#BEBEBE"/>
<path d="M18.8312 25.3427L20.1302 20.4512L23.2058 19.3276L23.9708 16.4528L23.9447 16.3815L20.9172 17.4875L23.0985 9.27411H16.9123L14.0597 19.9928L11.678 20.8629L10.891 23.8266L13.2709 22.9572L11.5897 29.2742H28.0536L29.109 25.3427H18.8312Z" fill="white"/>
</g>
<defs>
<clipPath id="clip0">
<rect width="40" height="40" fill="white"/>
</clipPath>
</defs>
</svg>
